<svg xmlns="http://www.w3.org/2000/svg" viewBox="0 0 128 128" role="img" aria-labelledby="title">
<title id="title">Panela Stocks</title>
<rect x="12" y="12" width="104" height="104" rx="34" fill="none" stroke="#C97035" stroke-width="11"/>
<path d="M43 32h42a8 8 0 0 1 8 8v8a8 8 0 0 1-16 0 8 8 0 0 1-16 0 8 8 0 0 1-16 0 8 8 0 0 1-16 0v-1a8 8 0 0 1 5-7 8 8 0 0 1 9-8Z" fill="#C97035"/>
<rect x="53" y="65" width="23" height="29" rx="11.5" fill="#7D8D60"/>
<circle cx="99" cy="27" r="9" fill="#7D8D60"/>
</svg>
